<svg xmlns="http://www.w3.org/2000/svg" viewBox="0 0 600 393"><g><text x="50%" y="0" style="fill: rgb(54, 58, 61); dominant-baseline: text-before-edge; text-anchor: middle; font-weight: bold; font-size: 13px; font-family: sans-serif;">GPU Power Usage (W)</text><svg viewBox="0 0 1024 1024" x="138.53753662109375" y="26" height="11" width="11"><path d="M128 533.333h768c23.564 0 42.667-19.103 42.667-42.667v-85.333c0-23.564-19.103-42.667-42.667-42.667h-768c-23.564 0-42.667 19.103-42.667 42.667v85.333c0 23.564 19.103 42.667 42.667 42.667z" style="fill: rgb(215, 62, 62);"/></svg><text x="157.53753662109375" y="24" style="fill: rgb(215, 62, 62); dominant-baseline: text-before-edge; font-size: 11px; font-family: sans-serif;">A2C Cartpole-v1 env3 64x64 arch lr nat</text><svg viewBox="0 0 1024 1024" x="138.53753662109375" y="44" height="11" width="11"><path d="M128 533.333h768c23.564 0 42.667-19.103 42.667-42.667v-85.333c0-23.564-19.103-42.667-42.667-42.667h-768c-23.564 0-42.667 19.103-42.667 42.667v85.333c0 23.564 19.103 42.667 42.667 42.667z" style="fill: rgb(161, 40, 100);"/></svg><text x="157.53753662109375" y="42" style="fill: rgb(161, 40, 100); dominant-baseline: text-before-edge; font-size: 11px; font-family: sans-serif;">A2C Cartpole-v1 env2 64x64 arch lr nat</text><svg viewBox="0 0 1024 1024" x="138.53753662109375" y="62" height="11" width="11"><path d="M128 533.333h768c23.564 0 42.667-19.103 42.667-42.667v-85.333c0-23.564-19.103-42.667-42.667-42.667h-768c-23.564 0-42.667 19.103-42.667 42.667v85.333c0 23.564 19.103 42.667 42.667 42.667z" style="fill: rgb(219, 49, 105);"/></svg><text x="157.53753662109375" y="60" style="fill: rgb(219, 49, 105); dominant-baseline: text-before-edge; font-size: 11px; font-family: sans-serif;">A2C Cartpole-v1 env1 64x64 arch lr nat</text><svg viewBox="0 0 1024 1024" x="146.62969970703125" y="80" height="11" width="11"><path d="M128 533.333h768c23.564 0 42.667-19.103 42.667-42.667v-85.333c0-23.564-19.103-42.667-42.667-42.667h-768c-23.564 0-42.667 19.103-42.667 42.667v85.333c0 23.564 19.103 42.667 42.667 42.667z" style="fill: rgb(110, 120, 126);"/></svg><text x="165.62969970703125" y="78" style="fill: rgb(110, 120, 126); dominant-baseline: text-before-edge; font-size: 11px; font-family: sans-serif;">PPO Cartpole-v1 128 batch 64x64 arch</text><svg viewBox="0 0 1024 1024" x="150.6875" y="98" height="11" width="11"><path d="M128 533.333h768c23.564 0 42.667-19.103 42.667-42.667v-85.333c0-23.564-19.103-42.667-42.667-42.667h-768c-23.564 0-42.667 19.103-42.667 42.667v85.333c0 23.564 19.103 42.667 42.667 42.667z" style="fill: rgb(164, 103, 80);"/></svg><text x="169.6875" y="96" style="fill: rgb(164, 103, 80); dominant-baseline: text-before-edge; font-size: 11px; font-family: sans-serif;">PPO Cartpole-v1 64 batch 64x64 arch</text><svg viewBox="0 0 1024 1024" x="150.6875" y="116" height="11" width="11"><path d="M128 533.333h768c23.564 0 42.667-19.103 42.667-42.667v-85.333c0-23.564-19.103-42.667-42.667-42.667h-768c-23.564 0-42.667 19.103-42.667 42.667v85.333c0 23.564 19.103 42.667 42.667 42.667z" style="fill: rgb(125, 84, 178);"/></svg><text x="169.6875" y="114" style="fill: rgb(125, 84, 178); dominant-baseline: text-before-edge; font-size: 11px; font-family: sans-serif;">PPO Cartpole-v1 32 batch 64x64 arch</text><svg viewBox="0 0 1024 1024" x="154.737548828125" y="134" height="11" width="11"><path d="M128 533.333h768c23.564 0 42.667-19.103 42.667-42.667v-85.333c0-23.564-19.103-42.667-42.667-42.667h-768c-23.564 0-42.667 19.103-42.667 42.667v85.333c0 23.564 19.103 42.667 42.667 42.667z" style="fill: rgb(56, 116, 216);"/></svg><text x="173.737548828125" y="132" style="fill: rgb(56, 116, 216); dominant-baseline: text-before-edge; font-size: 11px; font-family: sans-serif;">DQN Cartpole-v1 128 batch 128 arch</text><svg viewBox="0 0 1024 1024" x="158.78753662109375" y="152" height="11" width="11"><path d="M128 533.333h768c23.564 0 42.667-19.103 42.667-42.667v-85.333c0-23.564-19.103-42.667-42.667-42.667h-768c-23.564 0-42.667 19.103-42.667 42.667v85.333c0 23.564 19.103 42.667 42.667 42.667z" style="fill: rgb(31, 168, 212);"/></svg><text x="177.78753662109375" y="150" style="fill: rgb(31, 168, 212); dominant-baseline: text-before-edge; font-size: 11px; font-family: sans-serif;">DQN Cartpole-v1 64 batch 128 arch</text><svg viewBox="0 0 1024 1024" x="158.78753662109375" y="170" height="11" width="11"><path d="M128 533.333h768c23.564 0 42.667-19.103 42.667-42.667v-85.333c0-23.564-19.103-42.667-42.667-42.667h-768c-23.564 0-42.667 19.103-42.667 42.667v85.333c0 23.564 19.103 42.667 42.667 42.667z" style="fill: rgb(30, 132, 121);"/></svg><text x="177.78753662109375" y="168" style="fill: rgb(30, 132, 121); dominant-baseline: text-before-edge; font-size: 11px; font-family: sans-serif;">DQN Cartpole-v1 32 batch 128 arch</text></g><g transform="translate(0, 185)"><svg class="rv-xy-plot__inner" width="600" height="208"><g transform="translate(48,5)" class="rv-xy-plot__grid-lines"><line y1="167.03448275862047" y2="167.03448275862047" x1="0" x2="532" class="rv-xy-plot__grid-lines__line" style="stroke-width: 0.5px;"/><line y1="117.32183908045961" y2="117.32183908045961" x1="0" x2="532" class="rv-xy-plot__grid-lines__line" style="stroke-width: 0.5px;"/><line y1="67.60919540229875" y2="67.60919540229875" x1="0" x2="532" class="rv-xy-plot__grid-lines__line" style="stroke-width: 0.5px;"/><line y1="17.89655172413789" y2="17.89655172413789" x1="0" x2="532" class="rv-xy-plot__grid-lines__line" style="stroke-width: 0.5px;"/></g><path d="M3.970149253731343,173L39.70149253731343,160.0747126436779" class="rv-xy-plot__series rv-xy-plot__series--line" transform="translate(48,5)" style="opacity: 1; stroke-width: 1.5px; stroke: rgb(34, 148, 135);"/><path d="M0,172.00574712643626L39.70149253731343,165.04597701149373" class="rv-xy-plot__series rv-xy-plot__series--line" transform="translate(48,5)" style="opacity: 1; stroke-width: 1.5px; stroke: rgb(91, 197, 219);"/><path d="M0,168.02873563218347L43.67164179104478,163.0574712643677" class="rv-xy-plot__series rv-xy-plot__series--line" transform="translate(48,5)" style="opacity: 1; stroke-width: 1.5px; stroke: rgb(83, 135, 221);"/><path d="M0,18.890804597700907L119.1044776119403,9.942528735632306L242.17910447761193,0L361.2835820895522,32.810344827586L480.3880597014926,24.85632183908044L532,38.77586206896554" class="rv-xy-plot__series rv-xy-plot__series--line" transform="translate(48,5)" style="opacity: 1; stroke-width: 1.5px; stroke: rgb(125, 84, 178);"/><path d="M0,47.724137931034115L119.1044776119403,49.71264367816086L238.2089552238806,47.724137931034115L361.2835820895522,53.68965517241365L377.1641791044776,50.70689655172387" class="rv-xy-plot__series rv-xy-plot__series--line" transform="translate(48,5)" style="opacity: 1; stroke-width: 1.5px; stroke: rgb(164, 103, 80);"/><path d="M0,48.718390804597846L119.1044776119403,45.73563218390809L238.2089552238806,38.77586206896554L305.7014925373134,41.758620689655295" class="rv-xy-plot__series rv-xy-plot__series--line" transform="translate(48,5)" style="opacity: 1; stroke-width: 1.5px; stroke: rgb(161, 169, 173);"/><path d="M0,65.620689655172L119.1044776119403,68.60344827586177L238.2089552238806,76.55747126436803L357.31343283582095,77.55172413793106L400.98507462686564,113.34482758620682" class="rv-xy-plot__series rv-xy-plot__series--line" transform="translate(48,5)" style="opacity: 1; stroke-width: 1.5px; stroke: rgb(232, 123, 159);"/><path d="M0,76.55747126436803L119.1044776119403,49.71264367816086L174.6865671641791,72.58045977011456" class="rv-xy-plot__series rv-xy-plot__series--line" transform="translate(48,5)" style="opacity: 1; stroke-width: 1.5px; stroke: rgb(161, 40, 100);"/><path d="M0,66.61494252873574L123.07462686567165,57.66666666666642L138.955223880597,90.47701149425242" class="rv-xy-plot__series rv-xy-plot__series--line" transform="translate(48,5)" style="opacity: 1; stroke-width: 1.5px; stroke: rgb(218, 76, 76);"/><g class="rv-xy-plot__series rv-xy-plot__series--mark" transform="translate(48,5)"><circle r="2" cx="138.955223880597" cy="90.47701149425242" style="opacity: 1; stroke: rgb(218, 76, 76); fill: rgb(218, 76, 76); stroke-width: 1px;"/></g><g class="rv-xy-plot__series rv-xy-plot__series--mark" transform="translate(48,5)"><circle r="2" cx="174.6865671641791" cy="72.58045977011456" style="opacity: 1; stroke: rgb(161, 40, 100); fill: rgb(161, 40, 100); stroke-width: 1px;"/></g><g class="rv-xy-plot__series rv-xy-plot__series--mark" transform="translate(48,5)"><circle r="2" cx="400.98507462686564" cy="113.34482758620682" style="opacity: 1; stroke: rgb(232, 123, 159); fill: rgb(232, 123, 159); stroke-width: 1px;"/></g><g class="rv-xy-plot__series rv-xy-plot__series--mark" transform="translate(48,5)"><circle r="2" cx="305.7014925373134" cy="41.758620689655295" style="opacity: 1; stroke: rgb(161, 169, 173); fill: rgb(161, 169, 173); stroke-width: 1px;"/></g><g class="rv-xy-plot__series rv-xy-plot__series--mark" transform="translate(48,5)"><circle r="2" cx="377.1641791044776" cy="50.70689655172387" style="opacity: 1; stroke: rgb(164, 103, 80); fill: rgb(164, 103, 80); stroke-width: 1px;"/></g><g class="rv-xy-plot__series rv-xy-plot__series--mark" transform="translate(48,5)"><circle r="2" cx="532" cy="38.77586206896554" style="opacity: 1; stroke: rgb(125, 84, 178); fill: rgb(125, 84, 178); stroke-width: 1px;"/></g><g class="rv-xy-plot__series rv-xy-plot__series--mark" transform="translate(48,5)"><circle r="2" cx="43.67164179104478" cy="163.0574712643677" style="opacity: 1; stroke: rgb(83, 135, 221); fill: rgb(83, 135, 221); stroke-width: 1px;"/></g><g class="rv-xy-plot__series rv-xy-plot__series--mark" transform="translate(48,5)"><circle r="2" cx="39.70149253731343" cy="165.04597701149373" style="opacity: 1; stroke: rgb(91, 197, 219); fill: rgb(91, 197, 219); stroke-width: 1px;"/></g><g class="rv-xy-plot__series rv-xy-plot__series--mark" transform="translate(48,5)"><circle r="2" cx="39.70149253731343" cy="160.0747126436779" style="opacity: 1; stroke: rgb(34, 148, 135); fill: rgb(34, 148, 135); stroke-width: 1px;"/></g><defs class="rv-gradient-defs"><linearGradient id="leftFadeGradient" x1="0" x2="1" y1="0" y2="0"><stop offset="0%" stop-color="white" stop-opacity="1"/><stop offset="60%" stop-color="white" stop-opacity="1"/><stop offset="100%" stop-color="white" stop-opacity="0"/></linearGradient><linearGradient id="rightFadeGradient" x1="1" x2="0" y1="0" y2="0"><stop offset="0%" stop-color="white" stop-opacity="1"/><stop offset="100%" stop-color="white" stop-opacity="0"/></linearGradient><linearGradient id="bottomFadeGradient" x1="0" x2="0" y1="1" y2="0"><stop offset="0%" stop-color="white" stop-opacity="1"/><stop offset="40%" stop-color="white" stop-opacity="1"/><stop offset="100%" stop-color="white" stop-opacity="0"/></linearGradient><linearGradient id="topFadeGradient" x1="0" x2="0" y1="0" y2="1"><stop offset="0%" stop-color="white" stop-opacity="1"/><stop offset="100%" stop-color="white" stop-opacity="0"/></linearGradient></defs><g class="rv-xy-plot__borders plot-border"><rect class="rv-xy-plot__borders-bottom plot-border-bottom" x="0" y="178" width="600" height="30" style="fill: url(&quot;#bottomFadeGradient&quot;); opacity: 1;"/><rect class="rv-xy-plot__borders-left plot-border-left" x="0" y="0" width="48" height="208" style="fill: url(&quot;#leftFadeGradient&quot;); opacity: 1;"/><rect class="rv-xy-plot__borders-right plot-border-right" x="580" y="0" width="20" height="208" style="fill: url(&quot;#rightFadeGradient&quot;); opacity: 1;"/><rect class="rv-xy-plot__borders-top plot-border-top" x="0" y="0" width="600" height="5" style="fill: url(&quot;#topFadeGradient&quot;); opacity: 1;"/></g><g transform="translate(48,5839.275862068958)" class="rv-xy-plot__axis rv-xy-plot__axis--horizontal"><line x1="0" x2="532" y1="0" y2="0" class="rv-xy-plot__axis__line"/><g transform="translate(0, 0)" class="rv-xy-plot__axis__ticks"/></g><g transform="translate(48,178)" class="rv-xy-plot__axis rv-xy-plot__axis--horizontal" style="font-family: &quot;Source Sans Pro&quot;; fill: rgb(107, 107, 118); font-size: 14px;"><line x1="0" x2="532" y1="0" y2="0" class="rv-xy-plot__axis__line" style="font-family: &quot;Source Sans Pro&quot;; fill: rgb(107, 107, 118); font-size: 14px; stroke-width: 0px;"/><g transform="translate(0, 0)" class="rv-xy-plot__axis__ticks"><g transform="translate(31.761194029850746, 0)" class="rv-xy-plot__axis__tick" style="font-family: &quot;Source Sans Pro&quot;; fill: rgb(107, 107, 118); font-size: 14px;"><line x1="0" x2="0" y1="-6" y2="6" class="rv-xy-plot__axis__tick__line" style="font-family: &quot;Source Sans Pro&quot;; fill: rgb(107, 107, 118); font-size: 14px; stroke-width: 0px;"/><text text-anchor="middle" dy="0.72em" transform="translate(0, 14)" class="rv-xy-plot__axis__tick__text" style="font-family: sans-serif; fill: rgb(107, 107, 118); font-size: 14px;">40</text></g><g transform="translate(111.16417910447761, 0)" class="rv-xy-plot__axis__tick" style="font-family: &quot;Source Sans Pro&quot;; fill: rgb(107, 107, 118); font-size: 14px;"><line x1="0" x2="0" y1="-6" y2="6" class="rv-xy-plot__axis__tick__line" style="font-family: &quot;Source Sans Pro&quot;; fill: rgb(107, 107, 118); font-size: 14px; stroke-width: 0px;"/><text text-anchor="middle" dy="0.72em" transform="translate(0, 14)" class="rv-xy-plot__axis__tick__text" style="font-family: sans-serif; fill: rgb(107, 107, 118); font-size: 14px;">60</text></g><g transform="translate(190.56716417910448, 0)" class="rv-xy-plot__axis__tick" style="font-family: &quot;Source Sans Pro&quot;; fill: rgb(107, 107, 118); font-size: 14px;"><line x1="0" x2="0" y1="-6" y2="6" class="rv-xy-plot__axis__tick__line" style="font-family: &quot;Source Sans Pro&quot;; fill: rgb(107, 107, 118); font-size: 14px; stroke-width: 0px;"/><text text-anchor="middle" dy="0.72em" transform="translate(0, 14)" class="rv-xy-plot__axis__tick__text" style="font-family: sans-serif; fill: rgb(107, 107, 118); font-size: 14px;">80</text></g><g transform="translate(269.97014925373134, 0)" class="rv-xy-plot__axis__tick" style="font-family: &quot;Source Sans Pro&quot;; fill: rgb(107, 107, 118); font-size: 14px;"><line x1="0" x2="0" y1="-6" y2="6" class="rv-xy-plot__axis__tick__line" style="font-family: &quot;Source Sans Pro&quot;; fill: rgb(107, 107, 118); font-size: 14px; stroke-width: 0px;"/><text text-anchor="middle" dy="0.72em" transform="translate(0, 14)" class="rv-xy-plot__axis__tick__text" style="font-family: sans-serif; fill: rgb(107, 107, 118); font-size: 14px;">100</text></g><g transform="translate(349.3731343283582, 0)" class="rv-xy-plot__axis__tick" style="font-family: &quot;Source Sans Pro&quot;; fill: rgb(107, 107, 118); font-size: 14px;"><line x1="0" x2="0" y1="-6" y2="6" class="rv-xy-plot__axis__tick__line" style="font-family: &quot;Source Sans Pro&quot;; fill: rgb(107, 107, 118); font-size: 14px; stroke-width: 0px;"/><text text-anchor="middle" dy="0.72em" transform="translate(0, 14)" class="rv-xy-plot__axis__tick__text" style="font-family: sans-serif; fill: rgb(107, 107, 118); font-size: 14px;">120</text></g><g transform="translate(428.77611940298505, 0)" class="rv-xy-plot__axis__tick" style="font-family: &quot;Source Sans Pro&quot;; fill: rgb(107, 107, 118); font-size: 14px;"><line x1="0" x2="0" y1="-6" y2="6" class="rv-xy-plot__axis__tick__line" style="font-family: &quot;Source Sans Pro&quot;; fill: rgb(107, 107, 118); font-size: 14px; stroke-width: 0px;"/><text text-anchor="middle" dy="0.72em" transform="translate(0, 14)" class="rv-xy-plot__axis__tick__text" style="font-family: sans-serif; fill: rgb(107, 107, 118); font-size: 14px;">140</text></g><g transform="translate(508.17910447761193, 0)" class="rv-xy-plot__axis__tick" style="font-family: &quot;Source Sans Pro&quot;; fill: rgb(107, 107, 118); font-size: 14px;"><line x1="0" x2="0" y1="-6" y2="6" class="rv-xy-plot__axis__tick__line" style="font-family: &quot;Source Sans Pro&quot;; fill: rgb(107, 107, 118); font-size: 14px; stroke-width: 0px;"/><text text-anchor="middle" dy="0.72em" transform="translate(0, 14)" class="rv-xy-plot__axis__tick__text" style="font-family: sans-serif; fill: rgb(107, 107, 118); font-size: 14px;">160</text></g></g><g transform="translate(0, 0)" class="rv-xy-plot__axis__title"><g transform="translate(526, -6) rotate(0)" style="text-anchor: end; font-family: &quot;Source Sans Pro&quot;; fill: rgb(107, 107, 118); font-size: 14px;"><text style="font-family: sans-serif; fill: rgb(107, 107, 118); font-size: 14px;">Time (seconds)</text></g></g></g><g transform="translate(48,178)" class="rv-xy-plot__axis rv-xy-plot__axis--horizontal"><line x1="0" x2="0" y1="0" y2="0" class="rv-xy-plot__axis__line"/><g transform="translate(0, 0)" class="rv-xy-plot__axis__ticks"><g transform="translate(31.761194029850746, 0)" class="rv-xy-plot__axis__tick"><line x1="0" x2="0" y1="-6" y2="6" class="rv-xy-plot__axis__tick__line"/><text text-anchor="middle" dy="0.72em" transform="translate(0, 14)" class="rv-xy-plot__axis__tick__text" style="font-family: sans-serif;"/></g><g transform="translate(111.16417910447761, 0)" class="rv-xy-plot__axis__tick"><line x1="0" x2="0" y1="-6" y2="6" class="rv-xy-plot__axis__tick__line"/><text text-anchor="middle" dy="0.72em" transform="translate(0, 14)" class="rv-xy-plot__axis__tick__text" style="font-family: sans-serif;"/></g><g transform="translate(190.56716417910448, 0)" class="rv-xy-plot__axis__tick"><line x1="0" x2="0" y1="-6" y2="6" class="rv-xy-plot__axis__tick__line"/><text text-anchor="middle" dy="0.72em" transform="translate(0, 14)" class="rv-xy-plot__axis__tick__text" style="font-family: sans-serif;"/></g><g transform="translate(269.97014925373134, 0)" class="rv-xy-plot__axis__tick"><line x1="0" x2="0" y1="-6" y2="6" class="rv-xy-plot__axis__tick__line"/><text text-anchor="middle" dy="0.72em" transform="translate(0, 14)" class="rv-xy-plot__axis__tick__text" style="font-family: sans-serif;"/></g><g transform="translate(349.3731343283582, 0)" class="rv-xy-plot__axis__tick"><line x1="0" x2="0" y1="-6" y2="6" class="rv-xy-plot__axis__tick__line"/><text text-anchor="middle" dy="0.72em" transform="translate(0, 14)" class="rv-xy-plot__axis__tick__text" style="font-family: sans-serif;"/></g><g transform="translate(428.77611940298505, 0)" class="rv-xy-plot__axis__tick"><line x1="0" x2="0" y1="-6" y2="6" class="rv-xy-plot__axis__tick__line"/><text text-anchor="middle" dy="0.72em" transform="translate(0, 14)" class="rv-xy-plot__axis__tick__text" style="font-family: sans-serif;"/></g><g transform="translate(508.17910447761193, 0)" class="rv-xy-plot__axis__tick"><line x1="0" x2="0" y1="-6" y2="6" class="rv-xy-plot__axis__tick__line"/><text text-anchor="middle" dy="0.72em" transform="translate(0, 14)" class="rv-xy-plot__axis__tick__text" style="font-family: sans-serif;"/></g></g></g><g transform="translate(0,5)" class="rv-xy-plot__axis rv-xy-plot__axis--vertical" style="font-family: &quot;Source Sans Pro&quot;; fill: rgb(107, 107, 118); font-size: 14px;"><line x1="48" x2="48" y1="0" y2="173" class="rv-xy-plot__axis__line" style="font-family: &quot;Source Sans Pro&quot;; fill: rgb(107, 107, 118); font-size: 14px; stroke: none;"/><g transform="translate(48, 0)" class="rv-xy-plot__axis__ticks"><g transform="translate(0, 167.03448275862047)" class="rv-xy-plot__axis__tick" style="font-family: &quot;Source Sans Pro&quot;; fill: rgb(107, 107, 118); font-size: 14px;"><line y1="0" y2="0" x1="6" x2="-6" class="rv-xy-plot__axis__tick__line" style="font-family: &quot;Source Sans Pro&quot;; fill: rgb(107, 107, 118); font-size: 14px; stroke: none;"/><text text-anchor="end" dy="0.32em" transform="translate(-14, 0)" class="rv-xy-plot__axis__tick__text" style="font-family: sans-serif; fill: rgb(107, 107, 118); font-size: 14px;">57</text></g><g transform="translate(0, 117.32183908045961)" class="rv-xy-plot__axis__tick" style="font-family: &quot;Source Sans Pro&quot;; fill: rgb(107, 107, 118); font-size: 14px;"><line y1="0" y2="0" x1="6" x2="-6" class="rv-xy-plot__axis__tick__line" style="font-family: &quot;Source Sans Pro&quot;; fill: rgb(107, 107, 118); font-size: 14px; stroke: none;"/><text text-anchor="end" dy="0.32em" transform="translate(-14, 0)" class="rv-xy-plot__axis__tick__text" style="font-family: sans-serif; fill: rgb(107, 107, 118); font-size: 14px;">57.5</text></g><g transform="translate(0, 67.60919540229875)" class="rv-xy-plot__axis__tick" style="font-family: &quot;Source Sans Pro&quot;; fill: rgb(107, 107, 118); font-size: 14px;"><line y1="0" y2="0" x1="6" x2="-6" class="rv-xy-plot__axis__tick__line" style="font-family: &quot;Source Sans Pro&quot;; fill: rgb(107, 107, 118); font-size: 14px; stroke: none;"/><text text-anchor="end" dy="0.32em" transform="translate(-14, 0)" class="rv-xy-plot__axis__tick__text" style="font-family: sans-serif; fill: rgb(107, 107, 118); font-size: 14px;">58</text></g><g transform="translate(0, 17.89655172413789)" class="rv-xy-plot__axis__tick" style="font-family: &quot;Source Sans Pro&quot;; fill: rgb(107, 107, 118); font-size: 14px;"><line y1="0" y2="0" x1="6" x2="-6" class="rv-xy-plot__axis__tick__line" style="font-family: &quot;Source Sans Pro&quot;; fill: rgb(107, 107, 118); font-size: 14px; stroke: none;"/><text text-anchor="end" dy="0.32em" transform="translate(-14, 0)" class="rv-xy-plot__axis__tick__text" style="font-family: sans-serif; fill: rgb(107, 107, 118); font-size: 14px;">58.5</text></g></g></g></svg></g><style xmlns="http://www.w3.org/1999/xhtml">/*&lt;![CDATA[*/<br />text { font-size: 10px; fill: black }<br />.react-vis-magic-css-import-rule{display:inherit}.rv-treemap{font-size:12px;position:relative}.rv-treemap__leaf{overflow:hidden;position:absolute}.rv-treemap__leaf--circle{align-items:center;border-radius:100%;display:flex;justify-content:center}.rv-treemap__leaf__content{overflow:hidden;padding:10px;text-overflow:ellipsis}.rv-xy-plot{color:#c3c3c3;position:relative}.rv-xy-plot canvas{pointer-events:none}.rv-xy-plot .rv-xy-canvas{pointer-events:none;position:absolute}.rv-xy-plot__inner{display:block}.rv-xy-plot__axis__line{fill:none;stroke-width:2px;stroke:#e6e6e9}.rv-xy-plot__axis__tick__line{stroke:#e6e6e9}.rv-xy-plot__axis__tick__text{fill:#6b6b76;font-size:11px}.rv-xy-plot__axis__title text{fill:#6b6b76;font-size:11px}.rv-xy-plot__grid-lines__line{stroke:#e6e6e9}.rv-xy-plot__circular-grid-lines__line{fill-opacity:0;stroke:#e6e6e9}.rv-xy-plot__series,.rv-xy-plot__series path{pointer-events:all}.rv-xy-plot__series--line{fill:none;stroke:#000;stroke-width:2px}.rv-crosshair{position:absolute;font-size:11px;pointer-events:none}.rv-crosshair__line{background:#47d3d9;width:1px}.rv-crosshair__inner{position:absolute;text-align:left;top:0}.rv-crosshair__inner__content{border-radius:4px;background:#3a3a48;color:#fff;font-size:12px;padding:7px 10px;box-shadow:0 2px 4px rgba(0,0,0,0.5)}.rv-crosshair__inner--left{right:4px}.rv-crosshair__inner--right{left:4px}.rv-crosshair__title{font-weight:bold;white-space:nowrap}.rv-crosshair__item{white-space:nowrap}.rv-hint{position:absolute;pointer-events:none}.rv-hint__content{border-radius:4px;padding:7px 10px;font-size:12px;background:#3a3a48;box-shadow:0 2px 4px rgba(0,0,0,0.5);color:#fff;text-align:left;white-space:nowrap}.rv-discrete-color-legend{box-sizing:border-box;overflow-y:auto;font-size:12px}.rv-discrete-color-legend.horizontal{white-space:nowrap}.rv-discrete-color-legend-item{color:#3a3a48;border-radius:1px;padding:9px 10px}.rv-discrete-color-legend-item.horizontal{display:inline-block}.rv-discrete-color-legend-item.horizontal .rv-discrete-color-legend-item__title{margin-left:0;display:block}.rv-discrete-color-legend-item__color{display:inline-block;vertical-align:middle;overflow:visible}.rv-discrete-color-legend-item__color__path{stroke:#dcdcdc;stroke-width:2px}.rv-discrete-color-legend-item__title{margin-left:10px}.rv-discrete-color-legend-item.disabled{color:#b8b8b8}.rv-discrete-color-legend-item.clickable{cursor:pointer}.rv-discrete-color-legend-item.clickable:hover{background:#f9f9f9}.rv-search-wrapper{display:flex;flex-direction:column}.rv-search-wrapper__form{flex:0}.rv-search-wrapper__form__input{width:100%;color:#a6a6a5;border:1px solid #e5e5e4;padding:7px 10px;font-size:12px;box-sizing:border-box;border-radius:2px;margin:0 0 9px;outline:0}.rv-search-wrapper__contents{flex:1;overflow:auto}.rv-continuous-color-legend{font-size:12px}.rv-continuous-color-legend .rv-gradient{height:4px;border-radius:2px;margin-bottom:5px}.rv-continuous-size-legend{font-size:12px}.rv-continuous-size-legend .rv-bubbles{text-align:justify;overflow:hidden;margin-bottom:5px;width:100%}.rv-continuous-size-legend .rv-bubble{background:#d8d9dc;display:inline-block;vertical-align:bottom}.rv-continuous-size-legend .rv-spacer{display:inline-block;font-size:0;line-height:0;width:100%}.rv-legend-titles{height:16px;position:relative}.rv-legend-titles__left,.rv-legend-titles__right,.rv-legend-titles__center{position:absolute;white-space:nowrap;overflow:hidden}.rv-legend-titles__center{display:block;text-align:center;width:100%}.rv-legend-titles__right{right:0}.rv-radial-chart .rv-xy-plot__series--label{pointer-events:none}<br /><br />/*]]&gt;*/</style></svg>